<?xml version="1.0" standalone="no"?>
<!DOCTYPE svg PUBLIC "-//W3C//DTD SVG 20010904//EN"
 "http://www.w3.org/TR/2001/REC-SVG-20010904/DTD/svg10.dtd">
<svg version="1.0" xmlns="http://www.w3.org/2000/svg"
 width="100.000000pt" height="100.000000pt" viewBox="0 0 100.000000 100.000000"
 preserveAspectRatio="xMidYMid meet">
<metadata>
Created by potrace 1.14, written by Peter Selinger 2001-2017
</metadata>
<g transform="translate(0.000000,100.000000) scale(0.100000,-0.100000)"
fill="#000000" stroke="none">
<path d="M138 896 c-36 -13 -75 -43 -66 -51 2 -2 43 -27 91 -55 108 -61 152
-68 226 -33 28 14 49 28 46 33 -5 8 -142 87 -180 104 -35 15 -79 16 -117 2z"/>
<path d="M725 894 c-16 -8 -100 -55 -185 -105 -86 -49 -167 -89 -180 -89 -21
0 -22 -2 -10 -14 28 -26 115 -66 144 -66 25 0 236 113 404 217 28 17 21 30
-32 54 -50 23 -101 24 -141 3z"/>
<path d="M36 784 c-12 -32 -5 -78 18 -118 23 -39 101 -92 266 -182 19 -10 37
-22 38 -26 2 -5 9 -8 16 -8 7 0 31 -16 53 -35 23 -19 43 -35 45 -35 1 0 1 36
-2 80 -4 68 -9 83 -30 104 -20 19 -382 236 -395 236 -1 0 -6 -7 -9 -16z"/>
<path d="M857 749 c-91 -53 -133 -96 -142 -145 -9 -51 -12 -104 -6 -100 92 48
198 117 217 141 27 35 40 98 27 132 -8 21 -10 21 -96 -28z"/>
<path d="M613 607 c-89 -54 -87 -49 -88 -310 0 -126 3 -231 7 -233 17 -11 87
40 108 78 21 38 23 53 24 253 1 161 5 217 15 229 22 26 -7 19 -66 -17z"/>
<path d="M332 287 c3 -118 4 -125 32 -161 23 -31 77 -66 101 -66 3 0 5 50 5
110 0 138 -11 165 -87 218 -53 38 -55 34 -51 -101z"/>
</g>
</svg>
